<svg xmlns="http://www.w3.org/2000/svg" viewBox="0 0 1200 800" role="img" aria-labelledby="title desc">
  <title id="title">Passeio de patinete elİtrico na cidade</title>
  <desc id="desc">Ilustraİİo de um patinete elİtrico em ambiente urbano ao pİr do sol.</desc>
  <defs>
    <linearGradient id="sky" x1="0%" y1="0%" x2="0%" y2="100%">
      <stop offset="0%" style="stop-color:#1a4a6e"/>
      <stop offset="55%" style="stop-color:#c97a4a"/>
      <stop offset="100%" style="stop-color:#2d1810"/>
    </linearGradient>
    <linearGradient id="ground" x1="0%" y1="0%" x2="0%" y2="100%">
      <stop offset="0%" style="stop-color:#3d3a38"/>
      <stop offset="100%" style="stop-color:#1c1b1a"/>
    </linearGradient>
  </defs>
  <rect width="1200" height="800" fill="url(#sky)"/>
  <rect y="520" width="1200" height="280" fill="url(#ground)"/>
  <g opacity="0.35" fill="#0f172a">
    <rect x="80" y="200" width="120" height="320" rx="4"/>
    <rect x="260" y="140" width="100" height="380" rx="4"/>
    <rect x="900" y="160" width="140" height="360" rx="4"/>
    <rect x="1040" y="220" width="90" height="300" rx="4"/>
  </g>
  <g transform="translate(380, 300)">
    <ellipse cx="180" cy="210" rx="38" ry="38" fill="#111"/>
    <ellipse cx="180" cy="210" rx="22" ry="22" fill="#333"/>
    <ellipse cx="380" cy="210" rx="38" ry="38" fill="#111"/>
    <ellipse cx="380" cy="210" rx="22" ry="22" fill="#333"/>
    <path fill="#0b2239" d="M120 200h90l35-95h95l20 55h95l-15 40H355l-25-70-60 70H120z"/>
    <path fill="#9f402d" d="M325 105h115l18 50H340z"/>
    <rect x="305" y="55" width="8" height="95" rx="3" fill="#1e293b"/>
    <rect x="285" y="45" width="48" height="14" rx="4" fill="#1e293b"/>
    <path fill="#e2e8f0" d="M195 118c28-8 55-8 82 0l-5 18c-24-7-48-7-72 0z"/>
  </g>
</svg>
